<svg xmlns="http://www.w3.org/2000/svg" enable-background="new 0 0 24 24" viewBox="0 0 24 24"><path d="M22,0H2C0.896,0,0,0.895,0,2v20c0,1.105,0.896,2,2,2h20c1.104,0,2-0.895,2-2V2C24,0.895,23.104,0,22,0z M12.267,16.217c-0.016,0.082-0.066,0.115-0.148,0.115H6.65l-0.002-0.007c-0.116,0-0.148-0.05-0.148-0.148V5.433c0-0.083,0.033-0.132,0.116-0.132H8.2c0.084,0,0.1,0.037,0.1,0.12v9.26h4.125c0.083,0,0.106,0.033,0.09,0.116L12.267,16.217z M17.871,9.6c0,0.084-0.033,0.1-0.116,0.1c-0.628-0.033-1.564,0.05-1.91,0.198v6.31c0,0.082-0.033,0.115-0.116,0.115h-1.57c-0.08,0-0.114-0.033-0.114-0.116v-6.36l0.005,0.002c0-0.12,0-0.416-0.05-0.977c0-0.083,0.018-0.1,0.084-0.132c0.61-0.246,2.058-0.692,3.675-0.692c0.08,0,0.112,0.017,0.112,0.1V9.6z"/></svg>